<?xml version="1.0" encoding="UTF-8"?>
<svg width="400" height="400" version="1.1" viewBox="0 0 400 400" xmlns="http://www.w3.org/2000/svg">
 <g>
  <g fill="#3f48cc">
   <path d="m241.93 217.7c10.99-17.56 22.042-35.801 21.522-56.681-0.53621-21.536-8.7154-44.129-22.241-59.822l93.537-93.266-74.884 96.836c13.736 16.798 15.384 31.359 17.119 46.56l119.25 7.7294-120.19 8.5888c-1.1072 18.573-7.0311 30.895-14.615 46.621l72.226 95.993z" stroke-width=".34036"/>
   <path d="m330.23 325.11-99.323-98.668c-18.279 14.334-40.161 22.356-58.675 22.276-19.043-0.0825-37.818-8.5481-57.377-22.318l-97.24 98.073 100.83-77.927c14.941 10.656 27.098 14.322 46.337 16.11l8.197 124.24 8.2911-124.7c21.049-3.3509 29.551-6.3187 46.8-15.888z"/>
   <path d="m149.25 151.98v-85.837l6.2007 80.05z"/>
   <path d="m149.01 170.21 8.481 4e-3v5.3785l49.535-49.535v30.96h-8.1755v-5.6181l-49.805 49.805z"/>
   <path d="m206.95 175.63 0.0833 80.841-6.2031-74.794z"/>
  </g>
  <g fill="#99d9ea">
   <path d="m89.223 113.19"/>
   <path d="m162.94 170.15c-0.70789 0.0856-31.832 0-31.832 0l95.34-95.646-70.11 82.479h19.759z"/>
   <path d="m193.23 157.05c-0.16638 0.1931-13.054 13.054-13.054 13.054l21.503-0.15755-72.862 83.103 96.995-96.082z"/>
  </g>
 </g>
</svg>
