<svg xmlns="http://www.w3.org/2000/svg" width="400" height="400"><g fill="#3f48cc"><path d="M241.93 217.7c10.99-17.56 22.042-35.801 21.522-56.681-.536-21.536-8.715-44.129-22.241-59.822l93.537-93.266-74.884 96.836c13.736 16.798 15.384 31.359 17.119 46.56l119.25 7.73-120.19 8.588c-1.107 18.573-7.031 30.895-14.615 46.621l72.226 95.993zM330.23 325.11l-99.323-98.668c-18.279 14.334-40.161 22.356-58.675 22.276-19.043-.082-37.818-8.548-57.377-22.318l-97.24 98.073 100.83-77.927c14.941 10.656 27.098 14.322 46.337 16.11l8.197 124.24 8.291-124.7c21.05-3.35 29.551-6.319 46.8-15.888zM149.25 151.98V66.143l6.2 80.05zM149.01 170.21l8.481.004v5.378l49.535-49.535v30.96h-8.176V151.4l-49.805 49.805z"/><path d="m206.95 175.63.083 80.841-6.203-74.794z"/></g><g fill="#99d9ea"><path d="M162.94 170.15c-.708.086-31.832 0-31.832 0l95.34-95.646-70.11 82.479h19.759zM193.23 157.05c-.166.193-13.054 13.054-13.054 13.054l21.503-.158-72.862 83.103 96.995-96.082z"/></g></svg>